<svg width="60" height="38" viewBox="0 0 60 38" fill="none" xmlns="http://www.w3.org/2000/svg">
<rect x="0.5" y="0.5" width="59" height="37" rx="7.5" fill="white" stroke="#D3D3D3"/>
<path d="M48 27.522C48 30.5171 45.5611 32.956 42.566 32.956H13V11.434C13 8.43887 15.4389 6 18.434 6H48V27.522Z" fill="white"/>
<path d="M38.3728 22.0025H40.6191C40.6833 22.0025 40.8331 21.9811 40.8973 21.9811C41.3251 21.8956 41.6888 21.5105 41.6888 20.9756C41.6888 20.4622 41.3251 20.0771 40.8973 19.9701C40.8331 19.9487 40.7047 19.9487 40.6191 19.9487H38.3728V22.0025Z" fill="url(#paint0_linear_85_439)"/>
<path d="M40.3625 7.81836C38.2232 7.81836 36.4689 9.55124 36.4689 11.712V15.7554H41.9671C42.0954 15.7554 42.2452 15.7554 42.3522 15.7768C43.593 15.841 44.5129 16.4828 44.5129 17.5953C44.5129 18.4724 43.8925 19.2212 42.7372 19.3709V19.4137C43.9995 19.4993 44.9622 20.2053 44.9622 21.2964C44.9622 22.473 43.8925 23.2432 42.4805 23.2432H36.4475V31.1588H42.1596C44.299 31.1588 46.0533 29.4259 46.0533 27.2652V7.81836H40.3625Z" fill="url(#paint1_linear_85_439)"/>
<path d="M41.4107 17.852C41.4107 17.3385 41.047 16.9962 40.6191 16.932C40.5763 16.932 40.4694 16.9106 40.4052 16.9106H38.3728V18.7933H40.4052C40.4694 18.7933 40.5977 18.7933 40.6191 18.7719C41.047 18.7077 41.4107 18.3654 41.4107 17.852Z" fill="url(#paint2_linear_85_439)"/>
<path d="M18.8406 7.81836C16.7012 7.81836 14.9469 9.55124 14.9469 11.712V21.3177C16.038 21.8526 17.1719 22.1949 18.3057 22.1949C19.6535 22.1949 20.3809 21.3819 20.3809 20.2695V15.734H23.7183V20.2481C23.7183 22.0023 22.6272 23.4357 18.9261 23.4357C16.6798 23.4357 14.9255 22.9437 14.9255 22.9437V31.1374H20.6376C22.777 31.1374 24.5313 29.4045 24.5313 27.2438V7.81836H18.8406Z" fill="url(#paint3_linear_85_439)"/>
<path d="M29.6014 7.81836C27.462 7.81836 25.7078 9.55124 25.7078 11.712V16.8037C26.6919 15.9693 28.4034 15.4345 31.1631 15.5629C32.6393 15.627 34.2224 16.0335 34.2224 16.0335V17.6808C33.4309 17.2743 32.4895 16.9107 31.2701 16.8251C29.1735 16.6753 27.9113 17.7022 27.9113 19.4993C27.9113 21.3177 29.1735 22.3446 31.2701 22.1735C32.4895 22.0879 33.4309 21.7028 34.2224 21.3177V22.9651C34.2224 22.9651 32.6607 23.3715 31.1631 23.4357C28.4034 23.5641 26.6919 23.0292 25.7078 22.1949V31.1802H31.4199C33.5592 31.1802 35.3135 29.4473 35.3135 27.2866V7.81836H29.6014Z" fill="url(#paint4_linear_85_439)"/>
<defs>
<linearGradient id="paint0_linear_85_439" x1="36.4652" y1="20.9782" x2="46.0789" y2="20.9782" gradientUnits="userSpaceOnUse">
<stop stop-color="#007940"/>
<stop offset="0.2285" stop-color="#00873F"/>
<stop offset="0.7433" stop-color="#40A737"/>
<stop offset="1" stop-color="#5CB531"/>
</linearGradient>
<linearGradient id="paint1_linear_85_439" x1="36.465" y1="19.4792" x2="46.0795" y2="19.4792" gradientUnits="userSpaceOnUse">
<stop stop-color="#007940"/>
<stop offset="0.2285" stop-color="#00873F"/>
<stop offset="0.7433" stop-color="#40A737"/>
<stop offset="1" stop-color="#5CB531"/>
</linearGradient>
<linearGradient id="paint2_linear_85_439" x1="36.465" y1="17.8493" x2="46.0791" y2="17.8493" gradientUnits="userSpaceOnUse">
<stop stop-color="#007940"/>
<stop offset="0.2285" stop-color="#00873F"/>
<stop offset="0.7433" stop-color="#40A737"/>
<stop offset="1" stop-color="#5CB531"/>
</linearGradient>
<linearGradient id="paint3_linear_85_439" x1="14.9424" y1="19.4792" x2="24.705" y2="19.4792" gradientUnits="userSpaceOnUse">
<stop stop-color="#1F286F"/>
<stop offset="0.4751" stop-color="#004E94"/>
<stop offset="0.8261" stop-color="#0066B1"/>
<stop offset="1" stop-color="#006FBC"/>
</linearGradient>
<linearGradient id="paint4_linear_85_439" x1="25.6524" y1="19.4792" x2="35.1342" y2="19.4792" gradientUnits="userSpaceOnUse">
<stop stop-color="#6C2C2F"/>
<stop offset="0.1735" stop-color="#882730"/>
<stop offset="0.5731" stop-color="#BE1833"/>
<stop offset="0.8585" stop-color="#DC0436"/>
<stop offset="1" stop-color="#E60039"/>
</linearGradient>
</defs>
</svg>
