<svg width="60" height="38" viewBox="0 0 60 38" fill="none" xmlns="http://www.w3.org/2000/svg">
<rect x="0.5" y="0.5" width="59" height="37" rx="7.5" fill="white" stroke="#D3D3D3"/>
<path d="M34.9508 10.2856H25.6104V27.0689H34.9508V10.2856Z" fill="#FF5F00"/>
<path d="M26.2035 18.6773C26.2035 15.4156 27.7158 12.3021 30.2659 10.2857C25.6401 6.63846 18.909 7.43907 15.2618 12.0945C11.6442 16.7203 12.4448 23.4217 17.1002 27.0689C20.9847 30.1231 26.4111 30.1231 30.2955 27.0689C27.7158 25.0526 26.2035 21.9391 26.2035 18.6773Z" fill="#EB001B"/>
<path d="M47.5531 18.6773C47.5531 24.5781 42.7791 29.3522 36.8782 29.3522C34.4764 29.3522 32.1635 28.5516 30.2954 27.0689C34.9212 23.4217 35.7218 16.7203 32.0746 12.0648C31.5408 11.4125 30.9478 10.7898 30.2954 10.2857C34.9212 6.63846 41.6523 7.43907 45.2698 12.0945C46.7525 13.9626 47.5531 16.2755 47.5531 18.6773Z" fill="#F79E1B"/>
</svg>
